<?xml version="1.0" encoding="utf-8"?>
<!-- Generator: Adobe Illustrator 17.0.0, SVG Export Plug-In . SVG Version: 6.00 Build 0)  -->
<!DOCTYPE svg PUBLIC "-//W3C//DTD SVG 1.1//EN" "http://www.w3.org/Graphics/SVG/1.1/DTD/svg11.dtd">
<svg version="1.1" id="Layer_1" xmlns="http://www.w3.org/2000/svg" xmlns:xlink="http://www.w3.org/1999/xlink" x="0px" y="0px"
	 width="512px" height="512px" viewBox="0 0 512 512" enable-background="new 0 0 512 512"  xml:space="preserve">
<g>
	<g>
		<path fill="#fff" d="M340.794,171.877l-132.49,146.438l-41.777-46.173c-4.474-4.958-12.128-5.326-17.074-0.859
			c-4.946,4.48-5.339,12.128-0.852,17.08l48.657,53.772c2.225,3.241,5.919,5.139,9.837,5.139c0.441,0,0.883-0.181,1.33-0.236
			c0.308,0.024,0.605,0.193,0.907,0.193c3.579,0,7.05-1.608,9.401-4.383L358.72,188.105c4.486-4.958,4.099-12.606-0.852-17.086
			C352.922,166.539,345.274,166.908,340.794,171.877z"/>
		<path fill="#fff" d="M255.988,62.531C149.314,62.531,62.531,149.32,62.531,256s86.783,193.469,193.457,193.469
			c106.692,0,193.481-86.789,193.481-193.469S362.68,62.531,255.988,62.531z M255.988,425.285
			c-93.331,0-169.273-75.943-169.273-169.285S162.657,86.715,255.988,86.715c93.349,0,169.297,75.943,169.297,169.285
			S349.337,425.285,255.988,425.285z"/>
	</g>
</g>
</svg>
